<svg width="11" height="10" viewBox="0 0 11 10" fill="none" xmlns="http://www.w3.org/2000/svg">
<g clip-path="url(#clip0)">
<path fill-rule="evenodd" clip-rule="evenodd" d="M1.06061 3.18182H9.39394C9.9797 3.18182 10.4545 3.65667 10.4545 4.24242V8.93939C10.4545 9.52515 9.9797 10 9.39394 10H1.06061C0.474849 10 0 9.52515 0 8.93939V4.24242C0 3.65667 0.474849 3.18182 1.06061 3.18182ZM2.27273 1.21212H8.33333C8.83541 1.21212 9.24242 1.61914 9.24242 2.12121V2.57576H1.36364V2.12121C1.36364 1.61914 1.77065 1.21212 2.27273 1.21212ZM3.33333 0H7.27273C7.52377 0 7.72727 0.203507 7.72727 0.454545V0.606061H2.87879V0.454545C2.87879 0.203507 3.08229 0 3.33333 0Z" fill="#93A1AF"/>
</g>
<defs>
<clipPath id="clip0">
<rect width="10.4545" height="10" fill="white"/>
</clipPath>
</defs>
</svg>
