<svg width="19" height="16" viewBox="0 0 19 16" fill="none" xmlns="http://www.w3.org/2000/svg">
<path d="M19 1.82796C18.301 2.13829 17.5497 2.34729 16.7612 2.4415C17.5663 1.95937 18.1846 1.19542 18.4751 0.285C17.7222 0.7315 16.8878 1.05608 15.9996 1.23104C15.2895 0.473417 14.2753 0 13.1543 0C10.6376 0 8.78829 2.34808 9.35671 4.78562C6.118 4.62333 3.24583 3.07167 1.32288 0.713292C0.301625 2.46525 0.79325 4.75712 2.52858 5.91771C1.8905 5.89712 1.28883 5.72217 0.763958 5.43004C0.721208 7.23583 2.01558 8.92525 3.89025 9.30129C3.34163 9.45012 2.74075 9.48496 2.12958 9.36779C2.62517 10.9163 4.06442 12.0428 5.77125 12.0745C4.1325 13.3594 2.06783 13.9333 0 13.6895C1.72504 14.7955 3.77467 15.4407 5.9755 15.4407C13.2129 15.4407 17.3019 9.32821 17.0549 3.84592C17.8165 3.29571 18.4775 2.60933 19 1.82796Z" fill="#00ACED"/>
</svg>
