<svg width="147" height="22" viewBox="0 0 147 22" fill="none" xmlns="http://www.w3.org/2000/svg">
<path d="M5.72353 6.41751V20.3354C5.72353 20.8902 5.27378 21.34 4.71898 21.34C4.56857 21.34 4.42008 21.3062 4.28446 21.2411L0.570033 19.4591C0.22164 19.292 0 18.9398 0 18.5534V9.02398L5.72353 6.41751ZM12.8134 3.18882V20.3354C12.8134 20.8902 12.3636 21.34 11.8088 21.34C11.6584 21.34 11.5099 21.3062 11.3743 21.2411L7.65989 19.4591C7.3115 19.292 7.08986 18.9398 7.08986 18.5534V5.79529L12.8134 3.18882ZM14.1797 2.5666L14.7551 2.30457C16.396 1.5573 18.141 1.12443 19.9032 1.00743V20.3354C19.9032 20.8902 19.4535 21.34 18.8987 21.34C18.7483 21.34 18.5998 21.3062 18.4642 21.2411L14.7498 19.4591C14.4014 19.292 14.1797 18.9398 14.1797 18.5534V2.5666ZM26.9931 2.28798V20.3354C26.9931 20.8902 26.5434 21.34 25.9886 21.34C25.8381 21.34 25.6896 21.3062 25.554 21.2411L21.8396 19.4591C21.4912 19.292 21.2696 18.9398 21.2696 18.5534V0.97998C23.0665 1.02693 24.8581 1.40151 26.553 2.10525L26.9931 2.28798ZM34.083 9.39195L34.0793 13.3152L28.3594 15.6901V2.85529L34.0793 5.23023V9.15346L34.083 9.39195ZM46.0815 13.1047V9.01079H45.0695V7.24747H46.0815V5.14682H48.2435V7.24747H50.1448V9.01079H48.2435V13.1201C48.2435 13.6874 48.4735 13.9327 49.1482 13.9327H50.1448V15.7421H48.7955C47.1702 15.7421 46.0815 15.0521 46.0815 13.1047ZM51.1317 11.4641C51.1317 8.81145 52.849 7.10947 55.011 7.10947C56.3756 7.10947 57.311 7.75346 57.817 8.45879V7.24747H59.9789V15.7421H57.817V14.5001C57.311 15.2361 56.345 15.8801 54.9956 15.8801C52.849 15.8801 51.1317 14.1167 51.1317 11.4641ZM57.817 11.4948C57.817 9.88478 56.7436 8.99545 55.563 8.99545C54.413 8.99545 53.3243 9.85411 53.3243 11.4641C53.3243 13.0741 54.413 13.9941 55.563 13.9941C56.7436 13.9941 57.817 13.1047 57.817 11.4948ZM64.2164 11.5101V15.7421H62.0698V7.24747H64.2164V8.56612C64.7531 7.69213 65.6424 7.1248 66.8231 7.1248V9.37878H66.2558C64.9831 9.37878 64.2164 9.86944 64.2164 11.5101ZM67.7026 11.4641C67.7026 8.81145 69.4199 7.10947 71.5973 7.10947C72.7166 7.10947 73.7899 7.6308 74.3726 8.42812V4.39549H76.5499V15.7421H74.3726V14.4847C73.8666 15.2667 72.9159 15.8801 71.5819 15.8801C69.4199 15.8801 67.7026 14.1167 67.7026 11.4641ZM74.3879 11.4948C74.3879 9.88478 73.3146 8.99545 72.1339 8.99545C70.9839 8.99545 69.8953 9.85411 69.8953 11.4641C69.8953 13.0741 70.9839 13.9941 72.1339 13.9941C73.3146 13.9941 74.3879 13.1047 74.3879 11.4948ZM78.6407 15.7421V7.24747H80.7874V15.7421H78.6407ZM79.7294 6.23548C78.9627 6.23548 78.4107 5.68348 78.4107 4.97815C78.4107 4.27283 78.9627 3.72083 79.7294 3.72083C80.4807 3.72083 81.048 4.27283 81.048 4.97815C81.048 5.68348 80.4807 6.23548 79.7294 6.23548ZM82.3416 11.4641C82.3416 8.81145 84.0589 7.10947 86.2209 7.10947C87.5549 7.10947 88.5209 7.7228 89.0269 8.45879V7.24747H91.1888V15.8034C91.1888 18.1034 89.7782 19.928 86.9875 19.928C84.5956 19.928 82.9242 18.732 82.7096 16.7847H84.8409C85.0556 17.5514 85.8529 18.0574 86.9262 18.0574C88.1069 18.0574 89.0269 17.3827 89.0269 15.8034V14.4847C88.5209 15.2207 87.5549 15.8801 86.2209 15.8801C84.0589 15.8801 82.3416 14.1167 82.3416 11.4641ZM89.0269 11.4948C89.0269 9.88478 87.9535 8.99545 86.7729 8.99545C85.6229 8.99545 84.5342 9.85411 84.5342 11.4641C84.5342 13.0741 85.6229 13.9941 86.7729 13.9941C87.9535 13.9941 89.0269 13.1047 89.0269 11.4948ZM95.4263 11.5101V15.7421H93.2797V7.24747H95.4263V8.56612C95.963 7.69213 96.8523 7.1248 98.033 7.1248V9.37878H97.4657C96.193 9.37878 95.4263 9.86944 95.4263 11.5101ZM98.9125 11.4641C98.9125 8.81145 100.63 7.10947 102.792 7.10947C104.156 7.10947 105.092 7.75346 105.598 8.45879V7.24747H107.76V15.7421H105.598V14.5001C105.092 15.2361 104.126 15.8801 102.776 15.8801C100.63 15.8801 98.9125 14.1167 98.9125 11.4641ZM105.598 11.4948C105.598 9.88478 104.524 8.99545 103.344 8.99545C102.194 8.99545 101.105 9.85411 101.105 11.4641C101.105 13.0741 102.194 13.9941 103.344 13.9941C104.524 13.9941 105.598 13.1047 105.598 11.4948ZM109.299 11.4641C109.299 8.81145 111.016 7.10947 113.193 7.10947C114.313 7.10947 115.386 7.6308 115.969 8.42812V4.39549H118.146V15.7421H115.969V14.4847C115.463 15.2667 114.512 15.8801 113.178 15.8801C111.016 15.8801 109.299 14.1167 109.299 11.4641ZM115.984 11.4948C115.984 9.88478 114.911 8.99545 113.73 8.99545C112.58 8.99545 111.491 9.85411 111.491 11.4641C111.491 13.0741 112.58 13.9941 113.73 13.9941C114.911 13.9941 115.984 13.1047 115.984 11.4948ZM123.886 8.87279C122.859 8.87279 122.046 9.53211 121.877 10.6974H125.91C125.879 9.57811 124.99 8.87279 123.886 8.87279ZM127.919 13.0741C127.459 14.6381 126.048 15.8801 123.947 15.8801C121.479 15.8801 119.685 14.1627 119.685 11.4948C119.685 8.81145 121.433 7.10947 123.947 7.10947C126.401 7.10947 128.133 8.78079 128.133 11.3108C128.133 11.5868 128.118 11.8628 128.072 12.1388H121.862C121.969 13.3961 122.828 14.1014 123.901 14.1014C124.821 14.1014 125.327 13.6414 125.603 13.0741H127.919ZM131.942 14.5921C131.942 15.2974 131.39 15.8494 130.638 15.8494C129.856 15.8494 129.304 15.2974 129.304 14.5921C129.304 13.8867 129.856 13.3347 130.638 13.3347C131.39 13.3347 131.942 13.8867 131.942 14.5921ZM133.664 15.7421V7.24747H135.811V15.7421H133.664ZM134.753 6.23548C133.986 6.23548 133.434 5.68348 133.434 4.97815C133.434 4.27283 133.986 3.72083 134.753 3.72083C135.504 3.72083 136.072 4.27283 136.072 4.97815C136.072 5.68348 135.504 6.23548 134.753 6.23548ZM146.12 11.4948C146.12 14.1627 144.158 15.8801 141.689 15.8801C139.236 15.8801 137.381 14.1627 137.381 11.4948C137.381 8.81145 139.297 7.10947 141.751 7.10947C144.204 7.10947 146.12 8.81145 146.12 11.4948ZM139.558 11.4948C139.558 13.1814 140.539 14.0094 141.689 14.0094C142.824 14.0094 143.913 13.1814 143.913 11.4948C143.913 9.79278 142.855 8.98012 141.72 8.98012C140.585 8.98012 139.558 9.79278 139.558 11.4948Z" fill="#2582FF"/>
</svg>
