<svg width="17" height="10" viewBox="0 0 17 10" fill="none" xmlns="http://www.w3.org/2000/svg">
<path d="M2.83381 9.50661V2.67069L0 3.95088V8.63136C0 8.82115 0.109737 8.99412 0.282232 9.07621L2.1213 9.95146C2.18845 9.98341 2.26197 10 2.33644 10C2.61113 10 2.83381 9.7791 2.83381 9.50661Z" fill="white"/>
<path d="M6.34411 9.50661V1.08489L3.5103 2.36508V8.63136C3.5103 8.82115 3.62004 8.99412 3.79253 9.07621L5.6316 9.95146C5.69875 9.98341 5.77227 10 5.84674 10C6.12143 10 6.34411 9.7791 6.34411 9.50661Z" fill="white"/>
<path d="M7.30548 0.650582L7.0206 0.779282V8.63136C7.0206 8.82115 7.13033 8.99412 7.30283 9.07621L9.1419 9.95146C9.20904 9.98341 9.28256 10 9.35704 10C9.63172 10 9.8544 9.7791 9.8544 9.50661V0.0134809C8.98188 0.0709467 8.11793 0.283554 7.30548 0.650582Z" fill="white"/>
<path d="M13.3647 9.50661V0.642438L13.1468 0.552685C12.3076 0.207037 11.4206 0.0230612 10.5309 0V8.63136C10.5309 8.82115 10.6406 8.99412 10.8131 9.07621L12.6522 9.95146C12.7193 9.98341 12.7929 10 12.8673 10C13.142 10 13.3647 9.7791 13.3647 9.50661Z" fill="white"/>
<path d="M16.8732 6.05855L16.875 4.13161L16.8732 4.01448V2.08755L14.0412 0.921077V7.22502L16.8732 6.05855Z" fill="white"/>
</svg>
